:SAMPLES-PER-SECOND 30
:FULLY-SPECIFIED
:DEGREES
545
root  77.8946 36.3396 -20.2455 0.129395 -22.9902 1.76062
RightUpLeg  -11.1096 27.1131 -11.7702
RightLeg  41.6369 7.00605 6.32819
RightFoot  -23.8518 0.495886 6.02663
RightToes  -8.14909e-010 0 -3.6325e-017
Spine  12.5175 -0.61703 -6.62815
Spine1  2.13906 -2.66048 6.41633
HEad  -9.73098 34.3935 -10.9286
LeftShoulder1  0.463839 1.33595 -14.3874
LeftArm  -10.5265 -45.9368 -18.7354
LeftForeArm  34.6916 -26.9455 -3.91606
LeftHand  -0.0388294 4.79856 3.7693
RightShoulder  -0.490024 -4.97059 26.5434
RightArm  4.18055 -1.72664 41.1788
RightForeArm  16.6828 21.5126 3.73968
RightHand  0.0746952 5.83003 0.407052
LeftUpLeg  -23.0441 -2.31908 11.0266
LeftLeg  32.4493 -9.55837 -6.14723
LeftFoot  -10.7542 0.10709 -8.22112
LeftToes  1.648e-009 -9.21574e-011 2.55256e-011
546
root  78.8504 36.5432 -19.6482 0.401672 -25.5907 1.14056
RightUpLeg  -12.0681 21.7971 -12.1458
RightLeg  42.1851 3.77909 3.37882
RightFoot  -19.463 0.318359 6.00897
RightToes  -8.14909e-010 0 -3.6325e-017
Spine  13.2698 -0.558827 -6.57881
Spine1  2.56481 -2.73627 6.83041
HEad  -8.45192 34.9883 -11.3104
LeftShoulder1  0.414182 1.45851 -13.2108
LeftArm  -8.91879 -46.429 -17.1189
LeftForeArm  34.238 -23.4675 -3.43948
LeftHand  -0.040862 4.59401 1.85726
RightShoulder  -0.399296 -4.74134 25.3566
RightArm  2.51422 -2.27702 42.3626
RightForeArm  15.898 20.1607 3.47874
RightHand  -0.258238 3.33556 -3.50492
LeftUpLeg  -22.4419 -0.943883 9.8096
LeftLeg  33.1213 -8.44316 -5.54617
LeftFoot  -11.2577 0.0711944 -6.74239
LeftToes  1.648e-009 -9.21574e-011 2.55256e-011
547
root  79.7384 36.91 -19.0914 1.76581 -28.1611 0.319885
RightUpLeg  -13.439 16.8032 -11.5479
RightLeg  41.3241 -0.753093 -0.979455
RightFoot  -15.1395 -0.00745302 3.19492
RightToes  -8.14909e-010 0 -3.6325e-017
Spine  12.9347 -0.656184 -5.73883
Spine1  2.91267 -2.73626 7.04029
HEad  -7.17664 34.9741 -11.255
LeftShoulder1  0.366561 1.61586 -12.3254
LeftArm  -8.50635 -46.479 -15.9133
LeftForeArm  35.9602 -19.7974 -4.24546
LeftHand  -0.0484282 6.14635 -1.74869
RightShoulder  -0.395618 -4.76636 24.3461
RightArm  1.4355 -2.78598 43.4161
RightForeArm  16.4702 19.7313 3.30329
RightHand  0.0446938 2.19734 -0.703029
LeftUpLeg  -22.1052 0.423959 8.84773
LeftLeg  31.8794 -7.1644 -4.43802
LeftFoot  -10.768 0.0918221 -5.47999
LeftToes  1.648e-009 -9.21574e-011 2.55256e-011
548
root  80.4897 37.2855 -18.5881 3.12354 -30.3366 -0.521484
RightUpLeg  -13.7355 10.6643 -10.3383
RightLeg  38.5453 -0.984083 -1.16669
RightFoot  -14.3418 0.00318571 3.80651
RightToes  -8.14909e-010 0 -3.6325e-017
Spine  11.6129 -0.119884 -6.93573
Spine1  4.86773 -3.02265 10.2273
HEad  -7.41205 34.8212 -13.0362
LeftShoulder1  0.311185 1.95969 -13.0898
LeftArm  -8.47593 -46.6976 -15.1377
LeftForeArm  38.9181 -16.9056 -5.95548
LeftHand  -0.172774 8.00898 -5.4897
RightShoulder  -0.216827 -4.22262 22.5141
RightArm  -0.57015 -3.35684 44.4036
RightForeArm  17.6756 19.349 3.03686
RightHand  0.470297 7.72998 3.60696
LeftUpLeg  -21.586 1.66849 8.07059
LeftLeg  30.0708 -6.15804 -3.49816
LeftFoot  -10.0257 0.113802 -4.66546
LeftToes  1.648e-009 -9.21574e-011 2.55256e-011
549
root  81.0589 37.6732 -18.1601 4.5885 -32.7935 -1.64508
RightUpLeg  -13.4671 4.26506 -8.23615
RightLeg  34.7445 2.19796 1.39991
RightFoot  -14.641 0.0532714 5.29862
RightToes  -8.14909e-010 0 -3.6325e-017
Spine  10.0299 0.0135104 -7.46679
Spine1  6.83531 -3.32388 11.5
HEad  -7.67772 34.8207 -14.2452
LeftShoulder1  0.241881 2.30011 -13.0439
LeftArm  -4.75122 -44.7209 -15.2255
LeftForeArm  38.0202 -16.0263 -6.97825
LeftHand  -0.398203 11.5688 -6.02592
RightShoulder  -0.0318313 -3.60177 20.6167
RightArm  -1.18004 -4.14503 46.7818
RightForeArm  15.3293 19.5018 3.17786
RightHand  -0.404438 2.65834 -5.37853
LeftUpLeg  -20.6858 3.50227 7.86427
LeftLeg  27.7754 -5.66707 -2.89023
LeftFoot  -9.07415 0.134225 -4.04289
LeftToes  1.648e-009 -9.21574e-011 2.55256e-011
550
root  81.544 38.0344 -17.7357 5.6427 -35.2664 -2.47784
RightUpLeg  -12.7335 -0.167564 -5.87733
RightLeg  31.4357 3.52874 2.08627
RightFoot  -14.657 0.0816399 6.25662
RightToes  -8.14909e-010 0 -3.6325e-017
Spine  10.1433 0.0465727 -6.87932
Spine1  6.35004 -3.01807 10.6819
HEad  -6.69258 33.9754 -13.9902
LeftShoulder1  0.217765 2.4251 -13.1324
LeftArm  -0.00973912 -41.3895 -15.5477
LeftForeArm  34.5821 -17.3586 -6.45447
LeftHand  -0.279257 10.8447 -4.45229
RightShoulder  -0.0462062 -3.63816 21.3558
RightArm  0.270144 -5.09866 47.2146
RightForeArm  14.5451 19.7452 3.37289
RightHand  -0.747207 3.02447 -9.59732
LeftUpLeg  -19.2837 5.25442 7.46259
LeftLeg  25.1133 -5.19737 -2.31963
LeftFoot  -8.06233 0.139624 -3.20008
LeftToes  1.648e-009 -9.21574e-011 2.55256e-011
551
root  82.0276 38.327 -17.3427 6.30365 -37.892 -2.2478
RightUpLeg  -12.3904 -5.18663 -4.82645
RightLeg  28.9695 4.29809 2.34723
RightFoot  -14.4578 0.0757877 6.37555
RightToes  -8.14909e-010 0 -3.6325e-017
Spine  10.9723 0.0907273 -5.50985
Spine1  4.24645 -1.94362 7.21802
HEad  -4.71812 33.5044 -11.5041
LeftShoulder1  0.324152 1.84552 -12.4967
LeftArm  4.73359 -37.1917 -15.8471
LeftForeArm  32.4004 -21.3251 -4.24238
LeftHand  -0.214355 10.5667 -3.35122
RightShoulder  -0.295181 -4.4381 24.2568
RightArm  1.49443 -6.36962 45.7763
RightForeArm  24.7216 20.6441 3.10045
RightHand  0.493764 2.72369 6.31272
LeftUpLeg  -18.1151 6.76345 6.07175
LeftLeg  22.2866 -4.27249 -1.58927
LeftFoot  -7.18092 0.134617 -2.50523
LeftToes  1.648e-009 -9.21574e-011 2.55256e-011
552
root  82.4253 38.5818 -17.0127 7.19153 -41.4901 -1.7196
RightUpLeg  -12.5974 -7.5558 -4.0933
RightLeg  26.5599 3.2501 1.55353
RightFoot  -14.0202 0.0491481 6.18946
RightToes  -8.14909e-010 0 -3.6325e-017
Spine  10.3733 0.414278 -4.92564
Spine1  3.25269 -0.79173 4.11058
HEad  -4.47204 33.6678 -10.39
LeftShoulder1  0.326545 1.73965 -11.3336
LeftArm  5.60744 -33.0871 -15.3321
LeftForeArm  31.8962 -24.6995 -3.471
LeftHand  -0.251416 10.6519 -4.08795
RightShoulder  -0.512395 -5.06053 26.2007
RightArm  2.31563 -6.95979 44.7929
RightForeArm  19.5089 21.5389 3.56587
RightHand  0.240893 1.7533 3.88723
LeftUpLeg  -17.1138 9.17933 4.54981
LeftLeg  19.0676 -3.29081 -0.955992
LeftFoot  -6.38944 0.167094 -2.95724
LeftToes  1.648e-009 -9.21574e-011 2.55256e-011
553
root  82.7755 38.7863 -16.6967 7.59094 -44.3523 -1.61316
RightUpLeg  -11.5078 -8.04313 -3.21573
RightLeg  23.8142 1.19486 0.35407
RightFoot  -13.4102 0.0335615 6.86504
RightToes  -8.14909e-010 0 -3.6325e-017
Spine  9.89086 0.373745 -4.57652
Spine1  3.17261 -0.52332 2.88743
HEad  -3.95813 33.2118 -9.89746
LeftShoulder1  0.158264 2.68437 -12.1284
LeftArm  5.65778 -30.9703 -13.1268
LeftForeArm  30.8742 -25.5723 -3.84666
LeftHand  -0.225542 9.94376 -4.18627
RightShoulder  -0.398662 -4.71938 25.8165
RightArm  3.75782 -7.77971 46.165
RightForeArm  21.3934 21.4928 3.50301
RightHand  0.116659 2.07263 1.99175
LeftUpLeg  -15.6745 11.2419 3.65679
LeftLeg  16.2052 -2.58768 -0.826309
LeftFoot  -5.79431 0.208034 -3.58903
LeftToes  1.648e-009 -9.21574e-011 2.55256e-011
554
root  83.0242 38.9073 -16.4195 7.42584 -46.3161 -1.57794
RightUpLeg  -9.53329 -8.76584 -2.57842
RightLeg  21.3623 0.342452 -0.068931
RightFoot  -12.5378 -0.0109533 7.279
RightToes  -8.14909e-010 0 -3.6325e-017
Spine  9.70091 0.432281 -5.00148
Spine1  3.47467 -0.542378 3.08136
HEad  -4.06687 32.4238 -10.5835
LeftShoulder1  0.140875 2.79035 -12.6255
LeftArm  5.90234 -28.8411 -11.9058
LeftForeArm  26.9319 -24.7397 -3.87514
LeftHand  -0.236478 10.7876 -3.58968
RightShoulder  -0.350104 -4.58874 25.2279
RightArm  3.67684 -8.22534 46.2485
RightForeArm  24.8139 22.8657 3.58881
RightHand  0.509617 1.16634 8.73121
LeftUpLeg  -14.213 12.0197 3.39022
LeftLeg  14.5593 -1.43338 -1.12959
LeftFoot  -5.77365 0.16532 -2.68298
LeftToes  1.648e-009 -9.21574e-011 2.55256e-011
555
root  83.2476 38.9532 -16.1622 6.50781 -48.2714 -0.783936
RightUpLeg  -7.80835 -8.7843 -2.75504
RightLeg  19.8215 0.1272 -0.160648
RightFoot  -11.4448 -0.0692742 7.95819
RightToes  -8.14909e-010 0 -3.6325e-017
Spine  9.54774 0.455178 -5.92974
Spine1  3.93626 -0.650212 3.30667
HEad  -4.47263 31.951 -11.3255
LeftShoulder1  0.155433 2.7297 -13.0444
LeftArm  4.91491 -25.9749 -10.8272
LeftForeArm  25.618 -24.995 -3.99818
LeftHand  -0.121048 8.49167 -2.73249
RightShoulder  -0.372285 -4.66045 25.179
RightArm  5.98598 -7.82038 45.9246
RightForeArm  23.9675 23.7218 3.81725
RightHand  0.404083 0.941371 7.33251
LeftUpLeg  -12.6854 11.4633 2.88133
LeftLeg  13.2296 1.01283 -1.3868
LeftFoot  -6.04736 0.149404 -2.4462
LeftToes  1.648e-009 -9.21574e-011 2.55256e-011
